<?xml version="1.0" encoding="utf-8"?>
<!-- Generator: Adobe Illustrator 21.0.0, SVG Export Plug-In . SVG Version: 6.00 Build 0)  -->
<svg version="1.1" id="Capa_1" xmlns="http://www.w3.org/2000/svg" xmlns:xlink="http://www.w3.org/1999/xlink" x="0px" y="0px"
	 viewBox="0 0 512 512" style="enable-background:new 0 0 512 512;" xml:space="preserve">
<style type="text/css">
	.st0{fill:none;stroke:#FFFFFF;stroke-width:15;stroke-miterlimit:10;}
	.st1{fill:#FFFFFF;}
</style>
<circle class="st0" cx="256" cy="256" r="245"/>
<path class="st1" d="M353.2,187.6h-55.9c-9.4-13.5-24.8-21.6-41.3-21.6v-7.2c0-6-4.8-10.8-10.8-10.8h-86.4c-6,0-10.8,4.8-10.8,10.8
	V202c0,6,4.8,10.8,10.8,10.8h7.9l10.9,13.1c1.3,1.5,3.5,1.7,5.1,0.5c0.2-0.1,0.3-0.3,0.5-0.5l10.9-13.1h11.7
	c-0.1,1.2-0.2,2.4-0.2,3.6v7.2c-0.2,1.8,1.2,3.4,3,3.6c0.3,0,0.7,0,1-0.1c1.1,9,4.3,17.6,9.3,25.2c-6.1-0.4-11.3-4.7-12.9-10.7h3.1
	v-7.2H202c-2,0-3.6,1.6-3.6,3.6c0,11.9,9.7,21.6,21.6,21.6h4.7c1.6,1.8,3.3,3.4,5.2,4.9c0.3,0.3,0.6,0.5,0.9,0.7v13.4l-29.9,10
	c-1.3,0.4-2.3,1.6-2.4,3l-7.2,68.4c-0.2,2,1.2,3.7,3.2,4c0.1,0,0.3,0,0.4,0h122.4c2,0,3.6-1.6,3.6-3.6c0-0.1,0-0.2,0-0.4l-7.2-68.4
	c-0.1-1.4-1.1-2.6-2.4-3l-29.9-10v-13.4c0.3-0.2,0.6-0.5,0.9-0.7c8.4-7,14.6-16.2,17.9-26.5h3.5l10.9,13.1c1.3,1.5,3.5,1.7,5.1,0.5
	c0.2-0.1,0.3-0.3,0.5-0.5l10.9-13.1h22.3c6,0,10.8-4.8,10.8-10.8v-28.8C364,192.4,359.2,187.6,353.2,187.6z M206.8,205.6h-14.4
	c-1.1,0-2.1,0.5-2.8,1.3l-9.2,11.1l-9.2-11.1c-0.7-0.8-1.7-1.3-2.8-1.3h-9.6c-2,0-3.6-1.6-3.6-3.6v-43.2c0-2,1.6-3.6,3.6-3.6h86.4
	c2,0,3.6,1.6,3.6,3.6v7.8C228.1,169.6,211.3,185.1,206.8,205.6z M230.8,356.8h-32l6.5-62.1l25.5-8.5V356.8z M238,356.8V309l12.8-4.3
	l-9,33.1c-0.2,0.9-0.1,1.8,0.3,2.6l8.2,16.4L238,356.8L238,356.8z M238,301.4v-7.2l8.6,4.3L238,301.4z M249,338.4l7-25.5l7,25.5
	l-7,13.9L249,338.4z M274,356.8h-12.2l8.2-16.4c0.4-0.8,0.5-1.7,0.3-2.6l-9-33.1L274,309V356.8z M274,301.4l-8.6-2.9l8.6-4.3V301.4z
	 M274,281.2v5l-18,9l-18-9v-16.4c11.3,5.6,24.7,5.6,36,0V281.2z M306.7,294.7l6.5,62.1h-32v-70.6L306.7,294.7z M277.5,259
	c-12.2,10.2-29.8,10.4-42.3,0.6h17.1v-7.2H228c-6.9-8.3-10.9-18.7-11.4-29.4c14.4-9.4,30.3-16.2,47-20.1c2.2,12,12.6,20.8,24.8,20.8
	h7C294.6,237.4,288.1,250.2,277.5,259z M288.4,216.4c-9.9,0-18-8.1-18-18c0-2-1.6-3.6-3.6-3.6c-0.3,0-0.5,0-0.8,0.1l-2.2,0.5
	c-18.2,4-35.5,11.3-51.1,21.4v-0.4c0-23.9,19.3-43.2,43.2-43.2s43.2,19.3,43.2,43.2H288.4z M356.8,227.2c0,2-1.6,3.6-3.6,3.6h-24
	c-1.1,0-2.1,0.5-2.8,1.3l-9.2,11.1l-9.2-11.1c-0.7-0.8-1.7-1.3-2.8-1.3h-3.4c0.4-2.4,0.7-4.8,0.8-7.2h0.2c2,0,3.6-1.6,3.6-3.6v-3.6
	c0-7.5-1.7-14.9-4.9-21.6h51.7c2,0,3.6,1.6,3.6,3.6L356.8,227.2L356.8,227.2z"/>
</svg>
