<?xml version="1.0" encoding="utf-8"?>
<!-- Generator: Adobe Illustrator 21.0.0, SVG Export Plug-In . SVG Version: 6.00 Build 0)  -->
<svg version="1.1" id="Capa_1" xmlns="http://www.w3.org/2000/svg" xmlns:xlink="http://www.w3.org/1999/xlink" x="0px" y="0px"
	 viewBox="0 0 512 512" style="enable-background:new 0 0 512 512;" xml:space="preserve">
<style type="text/css">
	.st0{fill:none;stroke:#FFFFFF;stroke-width:15;stroke-miterlimit:10;}
	.st1{fill:#FFFFFF;}
</style>
<circle class="st0" cx="256" cy="256" r="245"/>
<g>
	<path class="st1" d="M404.2,227.6L260.6,122.5c-2.8-2-6.5-2-9.3,0L107.8,227.6c-3.5,2.6-4.3,7.5-1.7,11c2.6,3.5,7.5,4.3,11,1.7
		L256,138.6l138.9,101.7c1.4,1,3,1.5,4.6,1.5c2.4,0,4.8-1.1,6.4-3.2C408.5,235.1,407.7,230.2,404.2,227.6z"/>
	<path class="st1" d="M366.2,242.1c-4.3,0-7.9,3.5-7.9,7.9v125.3h-63v-68.4c0-21.7-17.7-39.4-39.4-39.4s-39.4,17.7-39.4,39.4v68.4
		h-63V250c0-4.3-3.5-7.9-7.9-7.9s-7.9,3.5-7.9,7.9v133.1c0,4.3,3.5,7.9,7.9,7.9h78.7c4.1,0,7.5-3.2,7.8-7.3c0-0.2,0-0.4,0-0.6v-76.2
		c0-13,10.6-23.6,23.6-23.6s23.6,10.6,23.6,23.6v76.2c0,0.2,0,0.4,0,0.6c0.3,4.1,3.7,7.3,7.8,7.3h78.7c4.3,0,7.9-3.5,7.9-7.9V250
		C374,245.6,370.5,242.1,366.2,242.1z"/>
</g>
</svg>
