<?xml version="1.0" encoding="utf-8"?>
<!-- Generator: Adobe Illustrator 22.1.0, SVG Export Plug-In . SVG Version: 6.00 Build 0)  -->
<svg version="1.1" id="Capa_1" xmlns="http://www.w3.org/2000/svg" xmlns:xlink="http://www.w3.org/1999/xlink" x="0px" y="0px"
	 viewBox="0 0 512 512" style="enable-background:new 0 0 512 512;" xml:space="preserve">
<style type="text/css">
	.st0{fill:none;stroke:#FFFFFF;stroke-width:15;stroke-miterlimit:10;}
	.st1{fill:#FFFFFF;}
</style>
<circle class="st0" cx="256" cy="256" r="245"/>
<path class="st1" d="M362.8,205.8c8.6-6.5,14.2-16.8,14.2-28.4c0-19.5-15.9-35.4-35.4-35.4H170.4c-19.5,0-35.4,15.9-35.4,35.4
	c0,11.6,5.6,21.9,14.2,28.4c-8.6,6.5-14.2,16.8-14.2,28.4c0,17.5,12.7,32,29.3,34.9v58.2h-22.2c-3.9,0-7.1,3.2-7.1,7.1v14.2
	c0,19.5,15.9,35.4,35.4,35.4h57.7h28.4c19.5,0,35.4-15.9,35.4-35.4v-78.9h49.6c19.5,0,35.4-15.9,35.4-35.4
	C377,222.6,371.4,212.3,362.8,205.8z M362.8,177.4c0,11.7-9.5,21.3-21.3,21.3s-21.3-9.5-21.3-21.3s9.5-21.3,21.3-21.3
	S362.8,165.7,362.8,177.4z M149.2,177.4c0-11.7,9.5-21.3,21.3-21.3h142.8c-4.5,5.9-7.1,13.3-7.1,21.3s2.6,15.3,7.1,21.3H170.4
	C158.7,198.7,149.2,189.2,149.2,177.4z M149.2,234.2c0-11.7,9.5-21.3,21.3-21.3h1c-4.5,5.9-7.1,13.3-7.1,21.3v20.4
	C155.6,251.9,149.2,243.8,149.2,234.2z M170.4,369.8c-11.7,0-21.3-9.5-21.3-21.3v-7.1H221v7.1c0,8,2.6,15.3,7.1,21.3h0H170.4z
	 M277.7,348.6c0,11.7-9.5,21.3-21.3,21.3c-11.7,0-21.3-9.5-21.3-21.3v-14.2c0-3.9-3.2-7.1-7.1-7.1h-49.6v-61.9V263v-28.8
	c0-11.7,9.5-21.3,21.3-21.3h85.1c-4.5,5.9-7.1,13.3-7.1,21.3V348.6z M291.9,234.2c0-11.7,9.5-21.3,21.3-21.3h0
	c-4.5,5.9-7.1,13.3-7.1,21.3s2.6,15.3,7.1,21.3h-21.3V234.2z M341.6,255.4c-11.7,0-21.3-9.5-21.3-21.3s9.5-21.3,21.3-21.3
	s21.3,9.5,21.3,21.3S353.3,255.4,341.6,255.4z"/>
</svg>
