<?xml version="1.0" encoding="utf-8"?>
<!-- Generator: Adobe Illustrator 22.1.0, SVG Export Plug-In . SVG Version: 6.00 Build 0)  -->
<svg version="1.1" id="Capa_1" xmlns="http://www.w3.org/2000/svg" xmlns:xlink="http://www.w3.org/1999/xlink" x="0px" y="0px"
	 viewBox="0 0 512 512" style="enable-background:new 0 0 512 512;" xml:space="preserve">
<style type="text/css">
	.st0{fill:none;stroke:#FFFFFF;stroke-width:15;stroke-miterlimit:10;}
	.st1{fill:#FFFFFF;}
</style>
<circle class="st0" cx="256" cy="256" r="245"/>
<g>
	<g>
		<path class="st1" d="M293.4,302.8c0.2,0,0.4,0.1,0.6,0.1c0.7,0,1.4-0.2,2.1-0.5l104-47.4c2.1-1,3.3-3.3,2.8-5.6
			c-0.5-2.3-2.5-4-4.9-4c-0.9,0-85-1.8-122.4-76.4c-3.5-7-12.2-11.2-19.7-9.4l-86.8,20.9c-4.2,1-7.5,3.7-9.2,7.3
			c-1.6,3.6-1.4,7.7,0.6,11.4C175.7,227,218.8,293.2,293.4,302.8L293.4,302.8z M169.2,191.8c0.3-0.7,1.2-1.3,2.3-1.6l86.8-20.9
			c0.4-0.1,0.9-0.1,1.4-0.1c2.8,0,5.7,1.8,6.9,4.3c29,57.8,83.9,74.9,112.7,79.9l-86,39.2c-69.1-9.7-109.5-71.9-123.7-98.4
			C169.2,193.6,168.8,192.7,169.2,191.8L169.2,191.8z M169.2,191.8"/>
	</g>
	<rect x="107.8" y="344.9" class="st1" width="183.4" height="10.6"/>
	<path class="st1" d="M398,308.5v-10.6l-104,47.1v10.6L398,308.5z M398,308.5"/>
	<path class="st1" d="M398,294.1h-27l-77.6,37l-3.4,0c-46.9,0-84.7-8.3-112.9-18.1L107.8,341h183.7L398,294.1z M398,294.1"/>
	<path class="st1" d="M127.6,279.2c20.1,12.7,76.5,42.3,164.6,41.9l102.7-49c0,0-5.5,0-14.6-0.2l-87.7,40l-1.4-0.2
		c-50.2-6.5-86-38.5-108.5-66.8l-54.2,24.5C123.4,271.6,122.9,276.2,127.6,279.2L127.6,279.2z M127.6,279.2"/>
</g>
</svg>
