<svg id="Capa_1" data-name="Capa 1" xmlns="http://www.w3.org/2000/svg" viewBox="0 0 389.38 512"><defs><style>.cls-1{fill:#fff;}</style></defs><title>Customer</title><path class="cls-1" d="M194.71,250.4c56.93,0,103.08-56.05,103.08-125.2S282.64,0,194.71,0,91.63,56,91.63,125.2,137.78,250.4,194.71,250.4Z" transform="translate(-0.01)"/><path class="cls-1" d="M0,441.57Z" transform="translate(-0.01)"/><path class="cls-1" d="M389.39,444.86C389.45,443.71,389.39,436.86,389.39,444.86Z" transform="translate(-0.01)"/><path class="cls-1" d="M389.17,436.51c-1.91-120.45-17.64-154.78-138-176.5,0,0-17,21.59-56.44,21.59S138.26,260,138.26,260C19.19,281.5,2.51,315.31.31,432.6c-.18,9.58-.26,10.08-.3,9v12.66S28.71,512,194.71,512s194.68-57.78,194.68-57.78v-9.36C389.36,445.55,389.3,444.22,389.17,436.51Z" transform="translate(-0.01)"/></svg>