<svg id="Capa_1" data-name="Capa 1" xmlns="http://www.w3.org/2000/svg" viewBox="0 0 511.97 495.74"><defs><style>.cls-1{fill:#fff;}</style></defs><title>home button</title><path class="cls-1" d="M505.59,241.84a24.41,24.41,0,0,0-1.49-34.49l-.51-.45L274.77,6.69c-10.39-9.08-27-8.89-37.21.43L8,217.58a24.27,24.27,0,0,0-1.67,34.28l.57.61,5.76,6c9.55,9.94,25,11.12,34.46,2.64l17.11-15.37v225a25,25,0,0,0,25,25h89.5a25,25,0,0,0,25-25V313.32H317.84V470.7c-.2,13.79,9.67,25,23.46,25h94.85a25,25,0,0,0,25-25V248.9l10.59,9.29c5.84,5.13,18.1,1,27.38-9.2Z" transform="translate(-0.04 0)"/></svg>