<svg id="Capa_1" data-name="Capa 1" xmlns="http://www.w3.org/2000/svg" viewBox="0 0 512 358.17"><defs><style>.cls-1{fill:#fff;}</style></defs><title>rupee</title><path class="cls-1" d="M511.9,275.54c-.61-14.18-14.49-25.5-41.32-33.66-20.81-6.22-47.23-10-75.8-10.61V122.41a11,11,0,0,0-1.53-5.1C390.4,105,376.63,95,352.25,87.63c-23-6.94-52.94-10.71-84.47-10.71s-61.11,3.77-83.65,10.71c-18.46,5.71-40.6,16.32-40.6,34.58a18.78,18.78,0,0,0,.31,3.37L145,172.09A122.07,122.07,0,1,0,199,386.73c19.08,4.49,41.52,6.94,65.29,7.14,5.2,28.26,66.41,41.21,123.43,41.21,31.42,0,61.11-3.88,83.65-10.92,18.46-5.71,40.6-16.42,40.6-34.68v-112A12.34,12.34,0,0,0,511.9,275.54ZM373.47,178.83c0,1.33-4.9,8.37-27,15.1-20.71,6.22-49.37,9.9-78.55,9.9-25.2,0-49.88-2.65-69.47-7.65-.31-.1-.51-.1-.82-.2a117.7,117.7,0,0,0-31.93-18.06L165,149.14a113,113,0,0,0,22,8.47c22.14,6.43,50.8,9.9,80.9,9.9,31.42,0,61.51-3.77,84.47-10.71a122.35,122.35,0,0,0,22.14-8.88v26.73C373.37,176.07,373.47,177.4,373.47,178.83ZM190.25,107.32c20.61-6.32,48.15-9.9,77.53-9.9,29.18,0,57.84,3.57,78.55,9.9,22.14,6.73,27,13.67,27,15s-5,8.47-27.14,15.1c-20.71,6.22-49.27,9.79-78.45,9.79-28.16,0-54.88-3.26-75.18-9.18-21.93-6.32-28.05-13.26-28.56-15.51,0-.2-.1-.2-.1-.2C164,120.37,168.73,113.85,190.25,107.32Zm.31,259.93a101.68,101.68,0,1,1-68.45-176.79,103.9,103.9,0,0,1,30.09,4.49,102.1,102.1,0,0,1,69.57,76.61,106.68,106.68,0,0,1,2,20.5A101.08,101.08,0,0,1,190.56,367.24Zm25.91,2.24a123.18,123.18,0,0,0,19.59-33.56c8.67.71,17.65,1.22,27,1.33v1.84l.61,34.58A318.66,318.66,0,0,1,216.47,369.49Zm27.24-89.57c5.92.41,12.14.61,18.46.71l.61,36.11c-7.14-.1-14.18-.41-20.91-.92A125.4,125.4,0,0,0,244.22,292C244.22,288,244,284,243.71,279.92Zm25.1-19.59h-1c-9.79,0-19.28-.41-28.05-1a120.94,120.94,0,0,0-18.26-37.95,367.41,367.41,0,0,0,46.21,3c31.52,0,61.62-3.77,84.57-10.71a128.83,128.83,0,0,0,22-8.77v26.73C330.52,232.79,285.53,242,268.8,260.34Zm13.47,16.22a.77.77,0,0,1,.1-.41c.92-2.75,8.16-9.49,29.28-15.4,19.79-5.61,45.6-8.67,72.73-8.67h1.73c29.18,0,57.74,3.37,78.55,9.69,21.73,6.53,26.83,13.26,26.93,14.79v.1c-.1,1.53-5.2,8.57-27.85,15.3-20.91,6.22-48.46,9.59-77.53,9.59-28.16,0-54.88-3.26-75.18-9.08-21.93-6.32-28-13.36-28.56-15.51ZM465.48,404.79c-20.61,6.43-48.25,10-77.63,10s-57-3.47-77.43-9.69c-21.52-6.63-26-13.47-26-15v-.2l-.51-29.58a132.92,132.92,0,0,0,25.4,9.28c21.42,5.61,48.66,8.77,76.61,8.77,31.52,0,61.41-3.77,84.26-10.71A130.75,130.75,0,0,0,491.6,359v30.6h.1C491.7,391,487,398.05,465.48,404.79ZM491.8,329.7h-.1c0,1-.61,2.24-.61,3.37,0,1.43-4.79,8.37-26.83,15.1C443.35,354.49,415.5,358,386,358c-56.51,0-94.57-12.75-102.52-22.65l-.1-8.57L283,303.28a125.17,125.17,0,0,0,22.24,8.57c22.14,6.43,50.8,9.9,80.9,9.9,31,0,60.6-3.67,83.34-10.41a116.83,116.83,0,0,0,22.34-8.77Z" transform="translate(0 -76.92)"/><path class="cls-1" d="M160.67,256.05H147.51a41.79,41.79,0,0,0-5.41-13.26h18.57a10.2,10.2,0,1,0,.2-20.4H83.24a10.2,10.2,0,1,0,0,20.4h22.24a22.47,22.47,0,0,1,20.71,13.26H83.24a10.2,10.2,0,0,0,0,20.4h42.85a24.22,24.22,0,0,1-4.39,5.81,22.63,22.63,0,0,1-16.32,6.43H83.14a10.34,10.34,0,0,0-10.2,10.41,10.53,10.53,0,0,0,3.16,7.34l55.49,52.43a10.17,10.17,0,0,0,14-14.79L108.64,309.2a42.81,42.81,0,0,0,27.44-12.45,44.76,44.76,0,0,0,11.43-20.3h13.16a10.2,10.2,0,0,0,0-20.4Z" transform="translate(0 -76.92)"/></svg>