<svg id="Capa_1" data-name="Capa 1" xmlns="http://www.w3.org/2000/svg" viewBox="0 0 512 414.05"><defs><style>.cls-1{fill:#fff;}</style></defs><title>three-buildings</title><path class="cls-1" d="M138.38,463h90.44V370.55h54.36V463h90.44V49H138.38ZM272.5,97.77h54.36v54.36H272.5Zm0,87.37h54.36V239.5H272.5Zm0,87.36h54.36v54.36H272.5ZM185.14,97.77H239.5v54.36H185.14Zm0,87.37H239.5V239.5H185.14Zm0,87.36H239.5v54.36H185.14Z" transform="translate(0 -48.97)"/><path class="cls-1" d="M394.74,86.06V378.83h34.92V463H512v-377Zm74.7,253H419.94V289.57h49.49v49.49Zm0-79.54H419.94V210h49.49v49.49Zm0-79.54H419.94V130.49h49.49V180Z" transform="translate(0 -48.97)"/><path class="cls-1" d="M0,463H82.34v-84.2h34.92V86.06H0ZM42.57,130.49H92.06V180H42.57Zm0,79.54H92.06v49.49H42.57Zm0,79.54H92.06v49.49H42.57Z" transform="translate(0 -48.97)"/></svg>