<?xml version="1.0" encoding="utf-8"?>
<!-- Generator: Adobe Illustrator 21.0.0, SVG Export Plug-In . SVG Version: 6.00 Build 0)  -->
<svg version="1.1" id="Capa_1" xmlns="http://www.w3.org/2000/svg" xmlns:xlink="http://www.w3.org/1999/xlink" x="0px" y="0px"
	 viewBox="0 0 512 512" style="enable-background:new 0 0 512 512;" xml:space="preserve">
<style type="text/css">
	.st0{fill:none;stroke:#FFFFFF;stroke-width:15;stroke-miterlimit:10;}
	.st1{fill:#FFFFFF;}
</style>
<circle class="st0" cx="256" cy="256" r="245"/>
<g>
	<path class="st1" d="M256,121c-15.7,0-28.4,12.8-28.4,28.4c0,15.7,12.7,28.4,28.4,28.4s28.4-12.7,28.4-28.4
		C284.4,133.8,271.7,121,256,121L256,121z"/>
	<path class="st1" d="M256,220.5c-11.8,0-21.3,9.5-21.3,21.3v127.9c0,11.8,9.5,21.3,21.3,21.3c11.8,0,21.3-9.5,21.3-21.3V241.8
		C277.3,230,267.8,220.5,256,220.5L256,220.5z"/>
</g>
</svg>
