<?xml version="1.0" encoding="utf-8"?>
<!-- Generator: Adobe Illustrator 21.0.0, SVG Export Plug-In . SVG Version: 6.00 Build 0)  -->
<svg version="1.1" id="Capa_1" xmlns="http://www.w3.org/2000/svg" xmlns:xlink="http://www.w3.org/1999/xlink" x="0px" y="0px"
	 viewBox="0 0 512 512" style="enable-background:new 0 0 512 512;" xml:space="preserve">
<style type="text/css">
	.st0{fill:none;stroke:#FFFFFF;stroke-width:15;stroke-miterlimit:10;}
	.st1{fill:#FFFFFF;}
</style>
<circle class="st0" cx="256" cy="256" r="245"/>
<g>
	<path class="st1" d="M355.3,333.7L331,228.5v-70.4c0-2.2-1.8-4.1-4-4.1h-13.2l-2.9-12.6c-0.5-2.2-2.7-3.5-4.8-3L240.7,154h-64.1
		c-2.2,0-4,1.8-4,4.1v12.2l-13,3.1c-1,0.2-1.9,0.9-2.5,1.8c-0.6,0.9-0.7,2-0.5,3.1l15.9,68.9v108.5c0,2.2,1.8,4.1,4,4.1h22l2.5,10.9
		c0.2,1,0.9,2,1.8,2.5c0.6,0.4,1.4,0.6,2.1,0.6c0.3,0,0.6,0,0.9-0.1l58.2-13.9h63c2.2,0,4-1.8,4-4.1v-11.9l21.4-5.1
		C354.5,338.1,355.8,335.9,355.3,333.7z M323,162.1v31.8l-7.3-31.8H323z M180.6,162.1h26.2l-26.2,6.3V162.1z M180.6,351.6v-69.9
		l16.1,69.9H180.6z M323,351.6h-24.9l24.9-6V351.6z M208,364.8l-42.6-184.4L304,147.2l42.6,184.4L208,364.8z"/>
	<path class="st1" d="M235.1,245.8l-3.7-16.2c-1.2-5.2-4.3-9.6-8.7-12.4c-0.9-0.5-1.7-1-2.6-1.4c0.6-0.7,1.1-1.4,1.6-2.2
		c2.9-4.7,3.8-10.3,2.5-15.7c-2.6-11.1-13.6-18.1-24.5-15.4c-5.3,1.3-9.8,4.6-12.7,9.3s-3.8,10.3-2.5,15.7
		c1.5,6.5,5.9,11.6,11.5,14.2c-3.9,4.7-5.7,11.1-4.2,17.5l3.7,16.2c0.4,1.9,2.1,3.1,3.9,3.1c0.3,0,0.6,0,0.9-0.1l31.9-7.6
		c1-0.2,1.9-0.9,2.5-1.8C235.1,248,235.3,246.9,235.1,245.8z M192.1,205.6c-0.8-3.3-0.2-6.7,1.5-9.5c1.7-2.9,4.5-4.9,7.7-5.6
		c1-0.2,1.9-0.3,2.8-0.3c5.6,0,10.7,3.9,12.1,9.7c0.8,3.3,0.2,6.7-1.5,9.5c-1.7,2.9-4.5,4.9-7.7,5.6l0,0
		C200.3,216.6,193.7,212.4,192.1,205.6z M202.3,249.5l-2.8-12.3c-1.5-6.3,2.4-12.7,8.6-14.2l1.6-0.4c0.9-0.2,1.8-0.3,2.7-0.3
		c2.1,0,4.2,0.6,6.1,1.8c2.6,1.7,4.5,4.3,5.2,7.3l2.8,12.3L202.3,249.5z"/>
	<path class="st1" d="M274.9,329.2c-0.5-2.2-2.7-3.5-4.8-3l-48.7,11.7c-2.1,0.5-3.5,2.7-3,4.9c0.4,1.9,2.1,3.1,3.9,3.1
		c0.3,0,0.6,0,0.9-0.1l48.7-11.7C274,333.6,275.4,331.4,274.9,329.2z"/>
	<path class="st1" d="M323.5,298.9c-0.5-2.2-2.7-3.5-4.8-3l-101.4,24.3c-2.1,0.5-3.5,2.7-3,4.9c0.4,1.9,2.1,3.1,3.9,3.1
		c0.3,0,0.6,0,0.9-0.1l101.4-24.3C322.7,303.3,324.1,301.1,323.5,298.9z"/>
	<path class="st1" d="M319.5,281.2c-0.5-2.2-2.7-3.5-4.8-3l-101.4,24.3c-2.1,0.5-3.5,2.7-3,4.9c0.4,1.9,2.1,3.1,3.9,3.1
		c0.3,0,0.6,0,0.9-0.1l101.4-24.3C318.6,285.6,320,283.4,319.5,281.2z"/>
	<path class="st1" d="M315.4,263.5c-0.5-2.2-2.7-3.5-4.8-3l-101.4,24.3c-2.1,0.5-3.5,2.7-3,4.9c0.4,1.9,2.1,3.1,3.9,3.1
		c0.3,0,0.6,0,0.9-0.1l101.4-24.3C314.5,267.9,315.9,265.7,315.4,263.5z"/>
	<path class="st1" d="M311.3,245.8c-0.5-2.2-2.7-3.5-4.8-3L205,267.1c-2.1,0.5-3.5,2.7-3,4.9c0.4,1.9,2.1,3.1,3.9,3.1
		c0.3,0,0.6,0,0.9-0.1l101.4-24.3C310.5,250.2,311.8,248,311.3,245.8z"/>
	<path class="st1" d="M305,218.5c-0.5-2.2-2.7-3.5-4.8-3l-53.6,12.8c-2.1,0.5-3.5,2.7-3,4.9c0.4,1.9,2.1,3.1,3.9,3.1
		c0.3,0,0.6,0,0.9-0.1l53.6-12.8C304.1,222.9,305.5,220.7,305,218.5z"/>
	<path class="st1" d="M300.9,200.8c-0.5-2.2-2.7-3.5-4.8-3l-53.6,12.8c-2.1,0.5-3.5,2.7-3,4.9c0.4,1.9,2.1,3.1,3.9,3.1
		c0.3,0,0.6,0,0.9-0.1l53.6-12.8C300,205.2,301.4,203,300.9,200.8z"/>
	<path class="st1" d="M265.5,182.1c-0.5-2.2-2.7-3.5-4.8-3l-24.1,5.8c-2.1,0.5-3.5,2.7-3,4.9c0.4,1.9,2.1,3.1,3.9,3.1
		c0.3,0,0.6,0,0.9-0.1l24.1-5.8C264.6,186.5,266,184.3,265.5,182.1z"/>
</g>
</svg>
