<?xml version="1.0" encoding="utf-8"?>
<!-- Generator: Adobe Illustrator 22.1.0, SVG Export Plug-In . SVG Version: 6.00 Build 0)  -->
<svg version="1.1" id="Layer_1" xmlns="http://www.w3.org/2000/svg" xmlns:xlink="http://www.w3.org/1999/xlink" x="0px" y="0px"
	 viewBox="0 0 512 512" style="enable-background:new 0 0 512 512;" xml:space="preserve">
<style type="text/css">
	.st0{fill:none;stroke:url(#SVGID_1_);stroke-width:4;stroke-miterlimit:10;}
	.st1{fill:#131313;}
</style>
<linearGradient id="SVGID_1_" gradientUnits="userSpaceOnUse" x1="8" y1="256" x2="504" y2="256">
	<stop  offset="0" style="stop-color:#F29720"/>
	<stop  offset="1" style="stop-color:#EED83D"/>
</linearGradient>
<circle class="st0" cx="256" cy="256" r="246"/>
<g>
	<path class="st1" d="M375.6,308.9l9.3-5.2c-0.6-3.4-1.4-6.8-2.6-10.3h-10.7l-5.8-10.3l5.4-9.3c-2.2-2.6-4.6-5.2-7.4-7.5l-9.3,5.2
		l-10.3-6v-10.7c-0.2,0-0.4-0.2-0.8-0.2c-3-1-6.2-2-9.5-2.6l-5.4,9.3h-11.9l-5.2-9.3c-3.4,0.6-6.8,1.4-10.3,2.6v10.7l-10.3,5.8
		l-9.3-5.4c-2.6,2.2-5.2,4.6-7.4,7.5l5.2,9.3l-6,10.3h-10.7c-1.2,3.4-2.2,6.6-2.8,10.1l9.3,5.4v11.9l-9.3,5.2
		c0.6,3.4,1.4,6.8,2.6,10.3h10.7l5.8,10.3l-5.4,9.3c2.2,2.6,4.6,5.2,7.4,7.4l9.3-5.2l10.3,6v10.7c0.2,0,0.4,0.2,0.8,0.2
		c3,1,6.2,2,9.5,2.6l5.4-9.3h11.9l5.2,9.3c3.4-0.6,6.8-1.4,10.3-2.6v-10.7l10.3-5.8l9.3,5.4c2.6-2.2,5.2-4.6,7.5-7.4l-5.2-9.3
		l6-10.3H382c1.2-3.4,2.2-6.6,2.8-10.1l-9.3-5.4V308.9z M322.4,349.5c-19.3,0-35.2-15.7-35.2-35c0-19.3,15.7-35.2,35.2-35.2
		c19.3,0,35.2,15.7,35.2,35S341.8,349.5,322.4,349.5L322.4,349.5z M322.4,349.5"/>
	<path class="st1" d="M267.7,249.9c0-3.8-0.2-7.9-0.8-11.7l-11.5-2.4l-4.2-12.5l7.9-8.9c-1.8-3.4-4-6.6-6.4-9.7l-11.3,3.8l-9.9-8.7
		l2.4-11.7c-3.4-2-6.8-3.8-10.5-5.2l-7.7,8.9l-12.9-2.6L199,178c-3.8,0-7.9,0.2-11.7,0.8l-2.4,11.5l-12.5,4.2l-8.9-7.9
		c-3.4,1.8-6.6,4-9.7,6.4l3.8,11.3l-8.7,9.9l-11.7-2.4c-2,3.4-3.8,6.8-5.2,10.5l8.9,7.9l-2.6,12.9l-11.3,3.6c0,3.8,0.2,7.9,0.8,11.7
		l11.7,2.4l4.2,12.5l-7.9,8.9c1.8,3.4,4,6.6,6.4,9.7l11.3-3.8l9.9,8.7l-2.6,11.7c3.4,2,6.8,3.8,10.5,5.2l7.9-8.9l12.9,2.6l3.8,11.3
		c3.8,0,7.9-0.2,11.7-0.8l2.4-11.5l12.5-4.2l8.9,7.9c3.4-1.8,6.6-4,9.7-6.4l-3.8-11.3l8.7-9.9l11.7,2.4c2-3.4,3.8-6.8,5.2-10.5
		l-8.9-7.9l2.6-12.9L267.7,249.9z M197.4,287.1c-21.5,0-39.1-17.5-39.1-39.1c0-21.5,17.5-39.1,39.1-39.1c21.5,0,39.1,17.5,39.1,39.1
		C236.5,269.6,219,287.1,197.4,287.1L197.4,287.1z M197.4,287.1"/>
	<path class="st1" d="M360.7,191.1l8.5-3.4c-0.2-3-0.6-6-1.2-9.1l-9.1-1.2l-3.8-9.5l5.6-7.2c-1.6-2.6-3.4-5-5.4-7.2l-8.5,3.4
		l-8.1-6.2l1.2-9.1l-0.6-0.4c-2.6-1.2-5.2-2.4-7.9-3.2l-5.6,7.2l-10.1-1.4l-3.4-8.7c-3,0.2-6,0.4-9.1,1l-1.2,9.1l-9.7,4l-7.2-5.6
		c-2.6,1.6-5,3.4-7.2,5.4l3.4,8.5l-6.2,8.1l-9.1-1.2c-1.4,2.6-2.6,5.4-3.6,8.5l7.2,5.6l-1.4,10.1l-8.5,3.4c0.2,3,0.6,6,1.2,9.1
		l9.1,1.2l3.8,9.5l-5.6,7.2c1.6,2.6,3.4,5,5.4,7.2l8.5-3.4l8.1,6.2L289,238l0.6,0.4c2.6,1.2,5.2,2.4,7.9,3.2l5.6-7.2l10.1,1.4
		l3.4,8.5c3-0.2,6-0.4,9.1-1.2l1.2-9.1l9.5-3.8l7.2,5.6c2.6-1.6,5-3.4,7.2-5.4l-3.4-8.5l6.2-8.1l9.1,1.2c1.4-2.6,2.6-5.4,3.6-8.5
		l-7.2-5.6L360.7,191.1z M314.6,220.9c-17.3,0-31.2-13.9-31.2-31.2c0-17.3,13.9-31.2,31.2-31.2s31.2,13.9,31.2,31.2
		C345.8,207,331.9,220.9,314.6,220.9L314.6,220.9z M314.6,220.9"/>
</g>
</svg>
