<?xml version="1.0" encoding="utf-8"?>
<!-- Generator: Adobe Illustrator 22.1.0, SVG Export Plug-In . SVG Version: 6.00 Build 0)  -->
<svg version="1.1" id="Layer_1" xmlns="http://www.w3.org/2000/svg" xmlns:xlink="http://www.w3.org/1999/xlink" x="0px" y="0px"
	 viewBox="0 0 512 512" style="enable-background:new 0 0 512 512;" xml:space="preserve">
<style type="text/css">
	.st0{fill:none;stroke:url(#SVGID_1_);stroke-width:4;stroke-miterlimit:10;}
	.st1{fill:#131313;}
</style>
<linearGradient id="SVGID_1_" gradientUnits="userSpaceOnUse" x1="8" y1="256" x2="504" y2="256">
	<stop  offset="0" style="stop-color:#F29720"/>
	<stop  offset="1" style="stop-color:#EED83D"/>
</linearGradient>
<circle class="st0" cx="256" cy="256" r="246"/>
<g>
	<path class="st1" d="M294.8,183.8l13,9c1.7,1.2,4.1,0.8,5.3-1c1.2-1.7,0.8-4.1-1-5.3l-13-9c-1.7-1.2-4.1-0.8-5.3,1
		C292.6,180.2,293,182.6,294.8,183.8z"/>
	<path class="st1" d="M320.7,201.7c0,0,13,9,13,9c1.7,1.1,4.1,0.8,5.3-1c1.2-1.7,0.8-4.1-1-5.3l-13-9c-1.7-1.2-4.1-0.8-5.3,1
		C318.6,198.2,319,200.5,320.7,201.7z"/>
	<path class="st1" d="M198.1,204.2l15.4,3.6c0.3,0.1,0.6,0.1,0.9,0.1c1.7,0,3.3-1.2,3.7-3c0.5-2.1-0.8-4.1-2.8-4.6l-15.4-3.6
		c-2.1-0.5-4.1,0.8-4.6,2.8C194.8,201.6,196.1,203.7,198.1,204.2z"/>
	<path class="st1" d="M228.9,211.4l15.4,3.6c0.3,0.1,0.6,0.1,0.9,0.1c1.7,0,3.3-1.2,3.7-3c0.5-2.1-0.8-4.1-2.8-4.6l-15.4-3.6
		c-2.1-0.5-4.1,0.8-4.6,2.8C225.5,208.8,226.8,210.9,228.9,211.4z"/>
	<path class="st1" d="M157.8,332.2l65.6,15.4c0.3,0.1,0.6,0.1,0.9,0.1c0.7,0,1.4-0.2,2-0.6c0.9-0.5,1.5-1.4,1.7-2.4l26.9-114.4
		c0.5-2.1-0.8-4.1-2.8-4.6l-34.8-8.2c-2.1-0.5-4.1,0.8-4.6,2.8c-0.5,2.1,0.8,4.1,2.8,4.6l31.1,7.3l-25.1,107l-58.1-13.6l25.1-107
		l11.8,2.8c2.1,0.5,4.1-0.8,4.6-2.8c0.5-2.1-0.8-4.1-2.8-4.6l-15.6-3.6c-2.1-0.5-4.1,0.8-4.6,2.8L155,327.6
		C154.5,329.6,155.8,331.7,157.8,332.2z"/>
	<path class="st1" d="M232.4,268.8c-0.6-1.5-2.2-2.5-3.8-2.3l-14.3,1.2l-5.6-13.2c-0.6-1.5-2.2-2.5-3.8-2.3c-1.7,0.1-3,1.3-3.4,2.9
		l-3.3,14l-14.3,1.2c-1.7,0.1-3,1.3-3.4,2.9c-0.4,1.6,0.3,3.3,1.7,4.1l12.3,7.4l-3.3,14c-0.4,1.6,0.3,3.3,1.7,4.1
		c0.6,0.4,1.3,0.6,2,0.6c0.9,0,1.8-0.3,2.5-0.9l10.9-9.4l12.3,7.4c1.4,0.9,3.2,0.7,4.5-0.4c1.3-1.1,1.7-2.8,1-4.4l-5.6-13.2
		l10.9-9.4C232.6,272.1,233,270.3,232.4,268.8z M212.3,283l2.1,4.9c0,0-4.6-2.8-4.6-2.8c-3.2-1.9-6.4,2-8.5,3.9l1.2-5.2
		c0.4-1.6-0.3-3.3-1.7-4.1l-4.6-2.8c0,0,5.3-0.4,5.3-0.4c3.7-0.3,4-5.4,4.6-8.2c0,0,2.1,4.9,2.1,4.9c1.4,3.4,6.3,2.1,9.2,1.9
		C215.2,277,210.9,279.4,212.3,283z"/>
	<path class="st1" d="M141.7,342c3.9,0.9,6.5,4.6,6.1,8.5c-0.2,1.9,1.1,3.7,2.9,4.1l23.2,5.4c1.9,0.4,3.8-0.6,4.4-2.4
		c3.2-8.4,16.2-5.3,15.3,3.6c-0.2,1.9,1.1,3.7,2.9,4.1l23.2,5.4c1.8,0.4,3.8-0.6,4.4-2.4c1.2-3.1,4.1-5.1,7.4-5.1
		c1.7,0,3.1,0.7,4.7-0.3c0.9-0.5,1.5-1.4,1.7-2.4l5-21.4c0,0,10.8,7.5,10.8,7.5c1.5,1.1,3.7,0.8,5-0.6c1.5-1.6,3.6-2.6,5.9-2.6
		c1.6,0,3.2,0.5,4.5,1.4c1.7,1.2,4.1,0.8,5.3-1l98-141.6c1.2-1.7,0.8-4.1-1-5.3c-3.3-2.3-4.4-6.6-2.6-10.1c0.9-1.7,0.3-3.8-1.2-4.9
		l-19.6-13.5c-1.6-1.1-3.7-0.8-5,0.6c-1.5,1.6-3.6,2.6-5.9,2.6c-1.6,0-3.2-0.5-4.5-1.4c-3.3-2.3-4.4-6.6-2.6-10.1
		c0.9-1.7,0.3-3.8-1.2-4.9l-19.6-13.5c-1.6-1.1-3.7-0.8-5,0.6c-1.5,1.6-3.6,2.6-5.9,2.6c-1.6,0-3.2-0.5-4.5-1.4
		c-1.7-1.2-4.1-0.8-5.3,1l-22.1,31.9c-0.4-0.2-0.8-0.4-1.2-0.5l-23.2-5.4c-1.9-0.4-3.8,0.6-4.4,2.4c-1.4,3.7-5.4,5.8-9.2,4.9
		c-3.9-0.9-6.5-4.6-6.1-8.5c0.2-1.9-1.1-3.7-2.9-4.1l-23.2-5.4c-1.9-0.4-3.8,0.6-4.4,2.4c-1.4,3.7-5.4,5.8-9.2,4.9
		c-2.1-0.5-4.1,0.8-4.6,2.8c0,0-5.7,24.4-5.7,24.4l-33.6,143.2C138.4,339.5,139.6,341.5,141.7,342z M293.2,151.6
		c1.7,0.7,3.6,1,5.5,1c3.2,0,6.4-1,9-2.8l14.7,10.2c-1.6,6.2,0.8,12.9,6.2,16.7c5.3,3.7,12.5,3.7,17.8,0l14.7,10.2
		c-1.3,5,0,10.3,3.4,14.1l-10.2,14.7l-3.1-2.2c-1.7-1.2-4.1-0.8-5.3,1c-1.2,1.7-0.8,4.1,1,5.3l3.1,2.2l-79.6,115
		c-1.7-0.7-3.6-1-5.5-1c-3.2,0-6.4,1-9,2.8l-10.8-7.5l3.9-16.6l16.9,11.7c1.7,1.2,4.1,0.8,5.3-1l49.2-71c1.2-1.7,0.8-4.1-1-5.3
		c-1.7-1.2-4.1-0.8-5.3,1L267,318l-16.2-11.2l7.5-31.8l13.4-4.7l8.7,11.4c0.7,1,1.9,1.5,3,1.5c0.4,0,0.8-0.1,1.3-0.2
		c1.6-0.5,2.6-2,2.6-3.7l-0.3-14.4l13.6-4.7c1.6-0.5,2.6-2,2.6-3.7c0-1.7-1.1-3.1-2.7-3.6l-13.8-4.1l-0.3-14.4
		c0-1.7-1.1-3.1-2.7-3.6c-1.6-0.5-3.3,0.1-4.2,1.5l-8.2,11.8l-5.2-1.6l9.8-42l4.8-7l49.1,34l-6.7,9.6c-1.2,1.7-0.8,4.1,1,5.3
		c1.7,1.2,4.1,0.8,5.3-1c0,0,8.8-12.7,8.8-12.8c1.2-1.7,0.7-4.1-1-5.3c0,0-55.3-38.3-55.4-38.3c-1.7-1.2-4.1-0.7-5.3,1l-1.7,2.4
		c0,0-0.1,0-0.1,0c-1.9-0.4-3.6-1.6-4.7-3.2c0,0,0,0,0,0l8.8-12.7l3.1,2.2c1.7,1.2,4.1,0.8,5.3-1c1.2-1.7,0.8-4.1-1-5.3l-3.1-2.2
		L293.2,151.6z M279.3,267.7c0,0-3.3-4.3-3.3-4.3c-1-1.3-2.8-1.8-4.3-1.3l-5.1,1.8c1.7-2.4,5.3-5.8,3-8.9l-3.3-4.3
		c0,0,5.1,1.5,5.1,1.5c3.6,1.1,5.7-3.5,7.3-5.9c0,0,0.1,5.4,0.1,5.4c0.1,3.7,5.1,4.3,7.9,5.1l-5.1,1.8c-1.6,0.5-2.6,2-2.6,3.7
		L279.3,267.7z M179,199.7l3.7,0.9c0.3,0.1,0.6,0.1,0.9,0.1c1.7,0,3.3-1.2,3.7-3c0.5-2.1-0.8-4.1-2.8-4.6l-3.7-0.9l4.1-17.4
		c5.2-0.1,9.9-2.8,12.7-7l17.4,4.1c0.8,6.3,5.5,11.8,11.9,13.3c6.3,1.5,13-1.2,16.6-6.6l17.4,4.1c0,0,0.2,1,0.2,1.1
		c0.2,1.1,0.6,2.3,1.1,3.3c1.4,3.2,3.9,5.9,7.1,7.5l-4.1,17.4l-3.7-0.9c-2.1-0.5-4.1,0.8-4.6,2.8c-0.5,2.1,0.8,4.1,2.8,4.6l3.7,0.9
		l-6.1,25.9c0,0-0.7,2.8-0.7,2.8l-4.5,19c0,0-9.4,40.2-9.4,40.2c0,0-5.8,24.6-5.8,24.6l-5.5,23.6c-5.2,0.1-9.9,2.8-12.7,7l-17.4-4.1
		c-0.8-6.3-5.5-11.8-11.9-13.3c-6.3-1.5-13,1.2-16.6,6.6l-17.4-4.1c-0.6-5.1-3.8-9.6-8.3-11.9L179,199.7z"/>
</g>
</svg>
