<?xml version="1.0" encoding="utf-8"?>
<!-- Generator: Adobe Illustrator 22.1.0, SVG Export Plug-In . SVG Version: 6.00 Build 0)  -->
<svg version="1.1" id="Layer_1" xmlns="http://www.w3.org/2000/svg" xmlns:xlink="http://www.w3.org/1999/xlink" x="0px" y="0px"
	 viewBox="0 0 512 512" style="enable-background:new 0 0 512 512;" xml:space="preserve">
<style type="text/css">
	.st0{fill:#121212;}
	.st1{fill:none;stroke:url(#SVGID_1_);stroke-width:4;stroke-miterlimit:10;}
</style>
<path class="st0" d="M185.2,236.8c-0.4-3.8-1.8-7.3-3.8-10.3l181.4-60.6l-9.5-28.5c-1.4-4.1-5.9-6.4-10-5l-197.4,65.9
	c-4.1,1.4-6.4,5.9-5,10l4.7,14c-4.7,4.3-7.6,10.5-7.6,17.4c0,8.9,4.9,16.6,12.1,20.7v111.8c0,4.4,3.5,7.9,7.9,7.9h208.1
	c4.4,0,7.9-3.5,7.9-7.9V236.8H185.2z M300.8,155.9l24-8l-5.8,23.4l-24,8L300.8,155.9z M241.5,175.7l24-8l-5.8,23.4l-24,8
	L241.5,175.7z M161.7,251.7c-6.7,0-12.1-5.4-12.1-12.1c0-6.7,5.4-12.1,12.1-12.1c6.7,0,12.1,5.4,12.1,12.1
	C173.7,246.3,168.3,251.7,161.7,251.7L161.7,251.7z M182.1,195.5l24-8l-5.8,23.4l-24,8L182.1,195.5z M205.7,263.6h-25.3l12.9-20.3
	h25.3L205.7,263.6z M255.8,243.2h25.3l-12.9,20.3H243L255.8,243.2z M249.6,341.5v-53.6l42.7,26.8L249.6,341.5z M330.9,263.6h-25.3
	l12.9-20.3h25.3L330.9,263.6z M330.9,263.6"/>
<linearGradient id="SVGID_1_" gradientUnits="userSpaceOnUse" x1="8" y1="256" x2="504" y2="256">
	<stop  offset="0" style="stop-color:#F29720"/>
	<stop  offset="1" style="stop-color:#EED83D"/>
</linearGradient>
<circle class="st1" cx="256" cy="256" r="246"/>
</svg>
