<?xml version="1.0" encoding="utf-8"?>
<!-- Generator: Adobe Illustrator 22.1.0, SVG Export Plug-In . SVG Version: 6.00 Build 0)  -->
<svg version="1.1" id="Layer_1" xmlns="http://www.w3.org/2000/svg" xmlns:xlink="http://www.w3.org/1999/xlink" x="0px" y="0px"
	 viewBox="0 0 512 512" style="enable-background:new 0 0 512 512;" xml:space="preserve">
<style type="text/css">
	.st0{fill:none;stroke:url(#SVGID_1_);stroke-width:4;stroke-miterlimit:10;}
	.st1{fill:#111111;}
</style>
<linearGradient id="SVGID_1_" gradientUnits="userSpaceOnUse" x1="8" y1="256" x2="504" y2="256">
	<stop  offset="0" style="stop-color:#F29720"/>
	<stop  offset="1" style="stop-color:#EED83D"/>
</linearGradient>
<circle class="st0" cx="256" cy="256" r="246"/>
<g>
	<path class="st1" d="M338.3,378.6c-0.4-0.2-0.8-0.4-1.3-0.5c-7.7-1.7-12.5-9.1-10.7-16.7c0.5-2.2,0.4-4.2-0.2-6.3
		c-0.1-0.5-0.2-1-0.4-1.6c-0.6-2-0.3-4.6-3.8-3.8c0-1.7,0-3.2,0-4.8c2.9,0.5,2.4-1.5,2.7-3.3c0.9-5.2-1.4-8.1-5.8-10.8
		c-11.5-6.9-22.7-14.3-34-21.6c-1.9-1.2-3.7-1.9-6-2c-4.6-0.2-9.2-0.5-13.9-0.7c-0.7,0-1.5,0.2-2.1,0.4
		c-29.6,10.2-59.3,20.4-88.9,30.6c-1.6,0.5-2.4,1.3-2.1,3c0.1,0.5,0.1,1.1,0,1.6c-0.2,1.8,0.1,3.1,2.6,2.6c0,1.6,0,3.1,0,4.7
		c-0.8,0.1-1.5,0.3-2.9,0.5c0.9,0.5,1.3,0.9,1.8,1.1c6.1,2.7,9.5,8.3,8.9,14.6c-0.6,6.2-4.9,10.8-11.5,12.4
		c-0.3,0.1-0.6,0.3-0.9,0.4c-1.1,0-2.1,0-3.2,0c-0.8-0.2-1.7-0.5-2.5-0.7c-7.1-2.1-11.4-9-9.8-16.4c0.5-2.4,0.3-4.6-0.3-6.8
		c-0.3-1.2-0.5-2.4-0.9-3.5c-0.2-0.5-0.7-1.2-1-1.2c-2.8,0.2-2-1.8-2.2-3.2c-0.2-1.9,1.1-1.8,2.6-1.9c0-1.5,0-3,0-4.6
		c0-4,0.8-5.2,4.5-6.6c34.4-13.2,68.8-26.5,103.1-39.6c1.1-0.4,2.5-0.7,3.7-0.6c7.1,0.5,14.2,1,21.3,1.6c0.7,0.1,1.6,0.4,2.2,0.8
		c17.9,12.8,35.7,25.7,53.6,38.5c2,1.4,2.6,3.3,2.7,5.5c0.1,1.6,0,3.2,0,4.9c1,0.2,1.7,0.3,2.5,0.4c0.8,3.7,0.6,4.2-2.6,5.3
		c0.7,0.4,1.2,0.7,1.7,0.9c5.8,2.6,9.4,8.2,8.9,14c-0.6,6.6-5,11.5-11.6,12.9c-0.4,0.1-0.7,0.3-1.1,0.4
		C340.4,378.6,339.3,378.6,338.3,378.6z M347.6,364.7c0-4.3-3.4-7.9-7.7-8c-4.3-0.1-8,3.5-8,7.9c0,4.3,3.5,7.8,7.8,7.9
		C344,372.6,347.6,369,347.6,364.7z M175.7,364.7c0-4.3-3.4-7.9-7.7-7.9c-4.3-0.1-7.9,3.4-7.9,7.7c-0.1,4.4,3.4,8,7.8,8.1
		C172.2,372.5,175.7,369,175.7,364.7z"/>
	<path class="st1" d="M140.9,220.3c4.1-0.7,8.2-1.6,12.3-2.2c16.7-2.8,33.4-5.6,50.2-8.3c17.3-2.9,34.6-5.7,51.9-8.6
		c7.7-1.3,15.5-2.5,23.2-3.8c12.4-2.1,24.8-4.1,37.3-6.2c2.6-0.4,5.2-0.8,7.7-1.1c1.3-0.1,1.9-0.9,2.5-2c2-4.2,4.1-8.3,6.1-12.5
		c0.8-1.7,1.9-2.5,3.8-2.8c8.9-1.4,17.7-3,26.5-4.5c3-0.5,5.5,0.3,7.3,2.8c1.8,2.3,2.1,4.9,0.7,7.6c-1.4,2.7-3.7,4.1-6.7,3.8
		c-4.9-0.5-9.8-1.2-14.8-1.8c-2.8-0.3-5.6-0.6-8.4-1c-1.7-0.3-1.8,0.9-2.1,2c-4.5,17.4-9,34.9-13.5,52.3
		c-3.9,15.2-7.8,30.5-11.8,45.7c-1.2,4.5-3.9,6.4-8.5,6.1c-10.3-0.6-20.6-1-30.9-1.6c-14.5-0.8-29.1-1.5-43.6-2.3
		c-8.9-0.5-17.8-0.9-26.7-1.3c-14.2-0.7-28.4-1.4-42.6-2.1c-3.8-0.2-6.5-2.4-7.4-6c-4.2-17.2-8.3-34.5-12.5-51.7
		C140.8,220.7,140.8,220.6,140.9,220.3z"/>
	<path class="st1" d="M228.9,155c19.3,8.3,38.1,16.5,57.2,24.8c-1.1,2.6-2.1,5.1-3.3,7.5c-0.3,0.5-1.1,0.9-1.8,1.1
		c-17.3,2.9-34.6,5.7-51.9,8.6c-6,1-12,2-18,3c-0.4,0.1-0.9,0.1-1.8,0.2C215.9,185,222.3,170.1,228.9,155z"/>
	<path class="st1" d="M288.8,186.9c4-17.9,7.9-35.6,11.9-53.5c2.7,0.6,5.3,1.1,7.9,1.7c5.9,1.3,11.8,2.7,17.6,3.9
		c1.3,0.3,1.6,0.7,1.3,2c-3,13.1-5.9,26.3-8.7,39.4c-0.3,1.4-1,1.9-2.4,2.1c-8.5,1.3-17,2.8-25.6,4.2
		C290.2,186.9,289.6,186.8,288.8,186.9z"/>
	<path class="st1" d="M202.4,187.1c0.9,4.7,1.8,9.1,2.7,13.8c-18.6,3.1-36.9,6.1-55.6,9.2c-0.8-4-1.6-7.9-2.4-12
		C165.5,194.4,183.8,190.8,202.4,187.1z"/>
	<path class="st1" d="M339.7,369.6c-2.8,0-5-2.3-4.9-5.2c0.1-2.8,2.3-4.8,5.1-4.8c2.8,0,4.9,2.1,4.9,5
		C344.7,367.5,342.6,369.7,339.7,369.6z"/>
	<path class="st1" d="M168,369.6c-2.9,0-5.2-2.2-5.2-5c0-2.7,2.2-4.9,5-5c2.9,0,5.2,2.2,5.2,5C173,367.4,170.8,369.6,168,369.6z"/>
</g>
</svg>
