<?xml version="1.0" encoding="utf-8"?>
<!-- Generator: Adobe Illustrator 22.1.0, SVG Export Plug-In . SVG Version: 6.00 Build 0)  -->
<svg version="1.1" id="Layer_1" xmlns="http://www.w3.org/2000/svg" xmlns:xlink="http://www.w3.org/1999/xlink" x="0px" y="0px"
	 viewBox="0 0 512 512" style="enable-background:new 0 0 512 512;" xml:space="preserve">
<style type="text/css">
	.st0{fill:none;stroke:url(#SVGID_1_);stroke-width:4;stroke-miterlimit:10;}
	.st1{fill:#131313;}
</style>
<linearGradient id="SVGID_1_" gradientUnits="userSpaceOnUse" x1="8" y1="256" x2="504" y2="256">
	<stop  offset="0" style="stop-color:#F29720"/>
	<stop  offset="1" style="stop-color:#EED83D"/>
</linearGradient>
<circle class="st0" cx="256" cy="256" r="246"/>
<path class="st1" d="M157.6,284.2c-16.1-20.7-13.2-37.1-4.8-49.6c9.2-13.6,25-18.5,44.1-13.5c-1.6-1.8-2.8-3.1-4-4.4
	c-12.6-14-13-34.8-1.1-48.9c12.2-14.5,32.7-17.6,48.8-7.2c23.9,15.4,47.7,31.1,71.5,46.6c10.2,6.7,20.5,13.2,30.6,20
	c10,6.8,13.4,17.6,9.2,28.8c-20-8.5-40-17.1-60-25.6c-0.1,0.3-0.3,0.5-0.4,0.8c1.4,0.8,2.8,1.7,4.3,2.5c22.7,11.3,45.4,22.5,68,33.9
	c13.6,6.8,18.2,20.2,11.6,33.4c-14.9-3.4-29.9-6.8-44.9-10.1c-0.1,0.4-0.2,0.8-0.4,1.1c2.5,0.9,5,1.9,7.5,2.7
	c16.1,5,32.2,9.7,48.2,14.9c10.9,3.5,17.8,13.7,17.1,24.3c-0.7,11.6-8.7,20.8-20.2,23.1c-1.9,0.4-3.9,0.4-5.8,0.4
	c-76.7,0-153.5,0-230.2,0c-17.2,0-31.6-10.6-36.4-26.3c-4.7-15.8,1.4-33,15.6-42.2c7.3-4.7,15.5-6.8,24.4-5.5
	C152.5,283.7,154.6,283.9,157.6,284.2z M120.1,328.7c1.7,10.8,15.2,20.7,28.2,19.2c15-1.7,26.4-14.7,25.3-29
	c-1.2-15.7-13.5-26.9-29.2-26.1c7.8,2.1,14.5,5.2,17.8,12.8c-11.3-9.5-23.7-10.1-32.1-0.5c-2.9,3.3-5.1,8-5.7,12.3
	c-0.6,4.1,0.6,9,2.5,12.7c1.9,3.7,5.6,6.5,8.6,9.7c-0.3,0.4-0.7,0.8-1,1.2C129.4,336.6,124.3,332.3,120.1,328.7z M267.9,326.2
	c3.3,14.7,16.9,24.1,30.8,21.4c15.6-3.1,25.6-16.7,23.1-31.7c-2.2-12.7-13.9-24.5-29-22.9c7.2,1.8,13.7,4.5,17.9,12.1
	c-15.4-9.1-26.7-8.2-34.2,2.2c-4,5.5-5.8,11.9-3.1,18.1c2.3,5.4,6.6,10,9.5,14.3C276.5,338.1,271.6,332.9,267.9,326.2z M156.9,262.8
	c2.8,14.4,16.8,23,32.2,20.2c13.8-2.5,23.7-17.3,21.2-31.9c-2.4-13.7-15.6-24.2-28.2-22.2c9.8,2.3,15.5,6.6,16.9,12.8
	c-10.7-9.6-23-10.5-31.4-1.4c-3.2,3.5-5.2,8.5-6.2,13.2c-2.1,9,3.8,15,10.4,21.3C163.7,273.8,161.2,267.4,156.9,262.8z M194,326.5
	c2.8,16.3,19.7,22.9,29.4,21.3c16.1-2.6,26.1-15.8,24.1-32c-1.7-13.4-15.3-24.3-28.5-22.9c11.4,3.8,14.9,6.4,17.4,13
	c-12.6-10.1-25.4-9.9-33.6,0.5c-8.2,10.4-5.3,23.4,8.1,33.8C203,338.2,198.3,333.9,194,326.5z M194.5,200.9
	c2.5,11.9,16.6,20.7,31.1,18c14.4-2.7,24.1-17,21.7-32.2c-2-12.9-14.9-23.3-27.3-21.9c7.4,2.1,13.6,5.3,17.4,14
	c-13.1-13.6-28.1-9.3-34.7-1c-8.5,10.6-5.4,23.8,8.2,33.7c-0.3,0.5-0.7,0.9-1,1.4C204.6,208.7,199.2,204.5,194.5,200.9z M233,267.3
	c2.9,11.3,17.1,18.7,31.2,15.6c13.3-3,23-18.3,20.3-32.1c-2.6-13.4-15.9-23.8-28-21.7c7.7,1.6,13.8,5.3,18,13.3
	c-14.6-11.2-27.8-10.4-35.8,1.3c-5.7,8.4-5.6,24.3,9.7,32c-0.3,0.4-0.5,0.8-0.8,1.2C242.7,273.5,237.6,270.2,233,267.3z"/>
</svg>
