<?xml version="1.0" encoding="utf-8"?>
<!-- Generator: Adobe Illustrator 22.1.0, SVG Export Plug-In . SVG Version: 6.00 Build 0)  -->
<svg version="1.1" id="Layer_1" xmlns="http://www.w3.org/2000/svg" xmlns:xlink="http://www.w3.org/1999/xlink" x="0px" y="0px"
	 viewBox="0 0 512 512" style="enable-background:new 0 0 512 512;" xml:space="preserve">
<style type="text/css">
	.st0{fill:none;stroke:url(#SVGID_1_);stroke-width:4;stroke-miterlimit:10;}
	.st1{fill:#111111;}
</style>
<linearGradient id="SVGID_1_" gradientUnits="userSpaceOnUse" x1="8" y1="256" x2="504" y2="256">
	<stop  offset="0" style="stop-color:#F29720"/>
	<stop  offset="1" style="stop-color:#EED83D"/>
</linearGradient>
<circle class="st0" cx="256" cy="256" r="246"/>
<g>
	<path class="st1" d="M161.5,393.9h179.2V165.7H161.5V393.9z M273.7,270.6h-45.3v-3.3h45.3V270.6z M192.9,190.2h116.4v8.7H192.9
		V190.2z M192.9,211.9h116.4v3.3H192.9V211.9z M192.9,221.2h116.4v3.3H192.9V221.2z M192.9,230.4h116.4v3.3H192.9V230.4z
		 M192.9,239.6h116.4v3.3H192.9V239.6z M192.9,248.9h116.4v3.3H192.9V248.9z M192.9,258.1h116.4v3.3H192.9V258.1z"/>
	<path class="st1" d="M345.4,108.9c-1-1.6-3.6-1.5-4.6,0c-1.5,2.2-14.2,21.8-14.2,30c0,9.1,7.4,16.5,16.5,16.5
		c9.1,0,16.5-7.4,16.5-16.5C359.6,130.6,346.9,111.1,345.4,108.9z M343.2,149.9c-6.1,0-11-4.9-11-11c0-4.2,6-15.3,10.9-23.3
		c5,8,11,19.1,11,23.3C354.1,144.9,349.2,149.9,343.2,149.9z"/>
	<path class="st1" d="M152.3,156.3v248h197.5V161.9h-31.4v-35L152.3,156.3z M165.8,175.4h170.6v215.5H165.8V175.4z M305.5,160.8
		H199.5c0,0,103.2-18.8,106.1-18.8V160.8z M305.5,160.8"/>
</g>
</svg>
