<?xml version="1.0" encoding="utf-8"?>
<!-- Generator: Adobe Illustrator 22.1.0, SVG Export Plug-In . SVG Version: 6.00 Build 0)  -->
<svg version="1.1" id="Layer_1" xmlns="http://www.w3.org/2000/svg" xmlns:xlink="http://www.w3.org/1999/xlink" x="0px" y="0px"
	 viewBox="0 0 512 512" style="enable-background:new 0 0 512 512;" xml:space="preserve">
<style type="text/css">
	.st0{fill:none;stroke:url(#SVGID_1_);stroke-width:4;stroke-miterlimit:10;}
	.st1{fill:#111111;}
</style>
<linearGradient id="SVGID_1_" gradientUnits="userSpaceOnUse" x1="8" y1="256" x2="504" y2="256">
	<stop  offset="0" style="stop-color:#F29720"/>
	<stop  offset="1" style="stop-color:#EED83D"/>
</linearGradient>
<circle class="st0" cx="256" cy="256" r="246"/>
<g>
	<path class="st1" d="M185.2,185l59.6,18.1l3-9.8L184,173.9l-28.4,16.4l5.1,8.9L185.2,185z M185.2,185"/>
	<path class="st1" d="M185.2,203.1l59.6,18.1l3-9.8L184,192l-28.4,16.4l5.1,8.9L185.2,203.1z M185.2,203.1"/>
	<path class="st1" d="M185.2,221.2l59.6,18.1l3-9.8L184,210.1l-28.4,16.4l5.1,8.9L185.2,221.2z M185.2,221.2"/>
	<path class="st1" d="M185.2,239.3l59.6,18.1l3-9.8L184,228.2l-28.4,16.4l5.1,8.9L185.2,239.3z M185.2,239.3"/>
	<path class="st1" d="M185.2,257.3l59.6,18.1l3-9.8L184,246.2l-28.4,16.4l5.1,8.9L185.2,257.3z M185.2,257.3"/>
	<path class="st1" d="M185.2,275.4l59.6,18.1l3-9.8L184,264.3l-28.4,16.4l5.1,8.9L185.2,275.4z M185.2,275.4"/>
	<path class="st1" d="M185.2,293.5l59.6,18.1l3-9.8L184,282.4l-28.4,16.4l5.1,8.9L185.2,293.5z M185.2,293.5"/>
	<path class="st1" d="M185.2,311.6l59.6,18.1l3-9.8L184,300.5l-28.4,16.4l5.1,8.9L185.2,311.6z M185.2,311.6"/>
	<path class="st1" d="M282.6,185l59.6,18.1l3-9.8l-63.8-19.4l-28.4,16.4l5.1,8.9L282.6,185z M282.6,185"/>
	<path class="st1" d="M282.6,167l59.6,18.1l3-9.8l-63.8-19.4l-28.4,16.4l5.1,8.9L282.6,167z M282.6,167"/>
	<path class="st1" d="M282.6,148.9l59.6,18.1l3-9.8l-63.8-19.4l-28.4,16.4l5.1,8.9L282.6,148.9z M282.6,148.9"/>
	<path class="st1" d="M282.6,203.1l59.6,18.1l3-9.8L281.3,192l-28.4,16.4l5.1,8.9L282.6,203.1z M282.6,203.1"/>
	<path class="st1" d="M282.6,221.2l59.6,18.1l3-9.8l-63.8-19.4l-28.4,16.4l5.1,8.9L282.6,221.2z M282.6,221.2"/>
	<path class="st1" d="M282.6,239.3l59.6,18.1l3-9.8l-63.8-19.4l-28.4,16.4l5.1,8.9L282.6,239.3z M282.6,239.3"/>
	<path class="st1" d="M282.6,257.3l59.6,18.1l3-9.8l-63.8-19.4l-28.4,16.4l5.1,8.9L282.6,257.3z M282.6,257.3"/>
	<path class="st1" d="M282.6,275.4l59.6,18.1l3-9.8l-63.8-19.4l-28.4,16.4l5.1,8.9L282.6,275.4z M282.6,275.4"/>
	<path class="st1" d="M282.6,293.5l59.6,18.1l3-9.8l-63.8-19.4l-28.4,16.4l5.1,8.9L282.6,293.5z M282.6,293.5"/>
	<path class="st1" d="M282.6,311.6l59.6,18.1l3-9.8l-63.8-19.4l-28.4,16.4l5.1,8.9L282.6,311.6z M282.6,311.6"/>
	<path class="st1" d="M342.3,364.4v-17.1l2.9-9.4l-63.8-19.4l-28.4,16.4l2.9,5v24.5h-10.9v-17.1l2.9-9.4L184,318.5l-28.4,16.4l2.9,5
		v24.5h-15.1v9.8h225.3v-9.8H342.3z M198.7,364.4v-20.8l31.3,7.5v13.3H198.7z M296,364.4v-20.8l31.3,7.5v13.3H296z M296,364.4"/>
</g>
</svg>
